<svg xmlns="http://www.w3.org/2000/svg" viewBox="0 0 640 480"><rect width="640" height="480" fill="#D6ECF7"/><rect y="420" width="640" height="60" fill="#DCE7D6"/><rect x="162" y="10" width="6" height="80" fill="#6B4A32"/><path d="M165 10q-30-10-46 10q22-4 40 4q-6-20 6-14z" fill="#4F7A4A"/><path d="M165 10q30-14 44 4q-20-2-38 8q4-18-6-12z" fill="#5C8A56"/><rect x="210" y="80" width="220" height="340" fill="#EAD9C6"/><rect x="210" y="80" width="12" height="340" fill="#D8C0A4"/><rect x="210" y="70" width="220" height="10" fill="#8E6A4B"/><rect x="242" y="109" width="36" height="19" fill="#F5F8FA"/><rect x="302" y="109" width="36" height="19" fill="#F5F8FA"/><rect x="362" y="109" width="36" height="19" fill="#FCE8A0"/><rect x="242" y="146" width="36" height="19" fill="#F5F8FA"/><rect x="302" y="146" width="36" height="19" fill="#F5F8FA"/><rect x="362" y="146" width="36" height="19" fill="#F5F8FA"/><rect x="242" y="184" width="36" height="19" fill="#F5F8FA"/><rect x="302" y="184" width="36" height="19" fill="#F5F8FA"/><rect x="362" y="184" width="36" height="19" fill="#F5F8FA"/><rect x="242" y="221" width="36" height="19" fill="#FCE8A0"/><rect x="302" y="221" width="36" height="19" fill="#FCE8A0"/><rect x="362" y="221" width="36" height="19" fill="#F5F8FA"/><rect x="242" y="259" width="36" height="19" fill="#F5F8FA"/><rect x="302" y="259" width="36" height="19" fill="#F5F8FA"/><rect x="362" y="259" width="36" height="19" fill="#F5F8FA"/><rect x="242" y="296" width="36" height="19" fill="#F5F8FA"/><rect x="302" y="296" width="36" height="19" fill="#FCE8A0"/><rect x="362" y="296" width="36" height="19" fill="#F5F8FA"/><rect x="242" y="334" width="36" height="19" fill="#F5F8FA"/><rect x="302" y="334" width="36" height="19" fill="#F5F8FA"/><rect x="362" y="334" width="36" height="19" fill="#F5F8FA"/><rect x="242" y="371" width="36" height="19" fill="#F5F8FA"/><rect x="302" y="371" width="36" height="19" fill="#F5F8FA"/><rect x="362" y="371" width="36" height="19" fill="#F5F8FA"/><rect x="298" y="374" width="44" height="46" fill="#5A4330"/><rect x="290" y="370" width="60" height="8" fill="#8E6A4B"/><path transform="translate(24,24)" d="M8 0 10 5 16 6 12 10 13 15 8 12 3 15 4 10 0 6 6 5Z" fill="#F5B942"/><path transform="translate(46,24)" d="M8 0 10 5 16 6 12 10 13 15 8 12 3 15 4 10 0 6 6 5Z" fill="#F5B942"/><path transform="translate(68,24)" d="M8 0 10 5 16 6 12 10 13 15 8 12 3 15 4 10 0 6 6 5Z" fill="#F5B942"/><path transform="translate(90,24)" d="M8 0 10 5 16 6 12 10 13 15 8 12 3 15 4 10 0 6 6 5Z" fill="#F5B942"/></svg>